# AST/ASF file generated using VICON BodyLanguage
# -----------------------------------------------
:version 1.10
:name VICON
:units
  mass 1.0
  length 0.45
  angle deg
:documentation
   .ast/.asf automatically generated from VICON data using
   VICON BodyBuilder and BodyLanguage model FoxedUp or BRILLIANT.MOD
:root
   order TX TY TZ RX RY RZ
   axis XYZ
   position 0 0 0  
   orientation 0 0 0 
:bonedata
  begin
     id 1 
     name lhipjoint
     direction 0.596438 -0.722117 0.35044 
     length 2.43043 
     axis 0 0 0  XYZ
  end
  begin
     id 2 
     name lfemur
     direction 0.34202 -0.939693 0  
     length 7.0339  
     axis 0 0 20  XYZ
    dof rx ry rz
    limits (-160.0 20.0)
           (-70.0 70.0)
           (-60.0 70.0)
  end
  begin
     id 3 
     name ltibia
     direction 0.34202 -0.939693 0   
     length 7.56602   
     axis 0 0 20   XYZ
    dof rx
    limits (-10.0 170.0)
  end
  begin
     id 4 
     name lfoot
     direction 0.0985677 -0.270812 0.957572   
     length 1.85172   
     axis -90 7.62852e-016 20   XYZ
    dof rx rz
    limits (-45.0 90.0)
           (-70.0 20.0)
  end
  begin
     id 5 
     name ltoes
     direction 1.53534e-011 -4.21843e-011 1   
     length 0.929904   
     axis -90 7.62852e-016 20   XYZ
    dof rx
    limits (-90.0 20.0)
  end
  begin
     id 6 
     name rhipjoint
     direction -0.585088 -0.729594 0.354068   
     length 2.40552  
     axis 0 0 0  XYZ 
  end
  begin
     id 7 
     name rfemur
     direction -0.34202 -0.939693 0   
     length 7.12573   
     axis 0 0 -20   XYZ
    dof rx ry rz
    limits (-160.0 20.0)
           (-70.0 70.0)
           (-70.0 60.0)
  end
  begin
     id 8 
     name rtibia
     direction -0.34202 -0.939693 0   
     length 7.35777   
     axis 0 0 -20   XYZ
    dof rx
    limits (-10.0 170.0)
 end
 begin
     id 9 
     name rfoot
     direction -0.120907 -0.33219 0.935431   
     length 2.0994  
     axis -90 -7.62852e-016 -20   XYZ
    dof rx rz
    limits (-45.0 90.0)
           (-20.0 70.0)
  end
  begin
     id 10 
     name rtoes
     direction -1.53577e-011 -4.21787e-011 1   
     length 1.04244   
     axis -90 -7.62852e-016 -20   XYZ
    dof rx
    limits (-90.0 20.0)
  end
  begin
     id 11 
     name lowerback
     direction 0.00268363 0.993603 -0.112896   
     length 2.15839   
     axis 0 0 0   XYZ
    dof rx ry rz
    limits (-20.0 45.0)
           (-30.0 30.0)
           (-30.0 30.0)
  end
  begin
     id 12 
     name upperback
     direction 0.0272563 0.999411 -0.0208618   
     length 2.16443   
     axis 0 0 0   XYZ
    dof rx ry rz
    limits (-20.0 45.0)
           (-30.0 30.0)
           (-30.0 30.0)
  end
  begin
     id 13 
     name thorax
     direction 0.0254655 0.999174 0.0316806   
     length 2.19003   
     axis 0 0 0   XYZ
    dof rx ry rz
    limits (-20.0 45.0)
           (-30.0 30.0)
           (-30.0 30.0)
  end
  begin
     id 14 
     name lowerneck
     direction -0.0102178 0.988048 0.15381   
     length 1.61507   
     axis 0 0 0   XYZ
    dof rx ry rz
    limits (-20.0 45.0)
           (-30.0 30.0)
           (-30.0 30.0)
  end
  begin
     id 15 
     name upperneck
     direction -0.0061965 0.994088 -0.108398   
     length 1.64042   
     axis 0 0 0   XYZ
    dof rx ry rz
    limits (-20.0 45.0)
           (-30.0 30.0)
           (-30.0 30.0)
  end
  begin
     id 16
     name head
     direction -0.00151929 0.998591 -0.0530385  
     length 1.64343  
     axis 0 0 0   XYZ
    dof rx ry rz
    limits (-20.0 45.0)
           (-30.0 30.0)
           (-30.0 30.0)
  end
  begin
     id 17 
     name lclavicle
     direction 0.948974 0.284245 -0.136574  
     length 3.3483  
     axis 0 0 0   XYZ
    dof ry rz
    limits (-20.0 10.0)
           (0.0 20.0)
  end
  begin
     id 18 
     name lhumerus
     direction 1 -4.48961e-011 1.68576e-027   
     length 4.93485   
     axis -180 -30 -90   XYZ
    dof rx ry rz
    limits (-60.0 90.0)
           (-90.0 90.0)
           (-90.0 90.0)
  end
  begin
     id 19
     name lradius
     direction 1 -4.48965e-011 -2.46405e-027   
     length 3.41719   
     axis -180 -30 -90   XYZ
    dof rx
    limits (-10.0 170.0)
  end
  begin
     id 20
     name lwrist
     direction 1 -4.48968e-011 -8.00486e-028   
     length 1.7086   
     axis 3.27501e-015 90 90   XYZ
    dof ry
    limits (-180.0 0.0)
 end
  begin
     id 21 
     name lhand
     direction 1 -4.48977e-011 -1.60161e-027   
     length 0.6241   
     axis 1.02148e-015 90 90   XYZ
    dof rx rz
    limits (-90.0 90.0)
           (-45.0 45.0)
  end
  begin
     id 22 
     name lfingers
     direction 1 -4.49049e-011 -3.21275e-027   
     length 0.503166   
     axis 2.04295e-015 90 90   XYZ
    dof rx
    limits (0.0 90.0)
  end
  begin
     id 23
     name lthumb
     direction 0.707107 -6.34975e-011 0.707107   
     length 0.722448   
     axis -90 45 -1.62303e-014   XYZ
    dof rx rz
    limits (-45.0 45.0)
           (-45.0 45.0)
  end
  begin
     id 24 
     name rclavicle
     direction -0.904485 0.355099 -0.236246   
     length 3.18329  
     axis 0 0 0   XYZ 
    dof ry rz
    limits (-10.0 20.0)
           (-20.0 0.0)
  end
  begin
     id 25 
     name rhumerus
     direction -1 -4.48953e-011 1.32816e-027  
     length 5.22034   
     axis -180 30 90   XYZ
    dof rx ry rz
    limits (-90.0 60.0)
           (-90.0 90.0)
           (-90.0 90.0)
  end
  begin
     id 26 
     name rradius
     direction -1 -4.48965e-011 -3.93727e-027   
     length 3.41809   
     axis -180 30 90   XYZ
    dof rx
    limits (-10.0 170.0)
  end
  begin
     id 27 
     name rwrist
     direction -1 -4.48962e-011 -8.003e-028   
     length 1.70904   
     axis 3.27501e-015 -90 -90   XYZ
    dof ry
    limits (-180.0 0.0)
  end
  begin
     id 28
     name rhand
     direction -1 -4.49008e-011 -1.60365e-027   
     length 0.77534   
     axis 1.02148e-015 -90 -90   XYZ
    dof rx rz
    limits (-90.0 90.0)
           (-45.0 45.0)
  end
  begin
     id 29
     name rfingers
     direction -1 -4.49001e-011 -3.2064e-027   
     length 0.625099   
     axis 2.04295e-015 -90 -90   XYZ
    dof rx
    limits (0.0 90.0)
  end
  begin
     id 30
     name rthumb
     direction -0.707107 -6.34989e-011 0.707107   
     length 0.897521   
     axis -90 -45 1.62303e-014   XYZ
    dof rx rz
    limits (-45.0 45.0)
           (-45.0 45.0)
  end
:hierarchy
  begin
    root lhipjoint rhipjoint lowerback
    lhipjoint lfemur
    lfemur ltibia
    ltibia lfoot
    lfoot ltoes
    rhipjoint rfemur
    rfemur rtibia
    rtibia rfoot
    rfoot rtoes
    lowerback upperback
    upperback thorax
    thorax lowerneck lclavicle rclavicle
    lowerneck upperneck
    upperneck head
    lclavicle lhumerus
    lhumerus lradius
    lradius lwrist
    lwrist lhand lthumb
    lhand lfingers
    rclavicle rhumerus
    rhumerus rradius
    rradius rwrist
    rwrist rhand rthumb
    rhand rfingers
  end

#!OML:ASF \\sashay\E\Suitcase\Project 1\Capture day 1\Session 1\Male1.ASF
:FULLY-SPECIFIED
:DEGREES
45
root 0.800211 17.4375 -33.612 3.82298 0.979343 -1.93656
lowerback 3.76762 -3.2128 -1.50294
upperback 0.525081 -4.33269 0.554915
thorax -1.41378 -2.15515 1.61619
lowerneck -9.89108 -6.58898 -1.11915
upperneck 10.8373 -9.52388 6.07097
head 5.23801 -4.31527 1.34172
rclavicle 1.42628e-014 4.77083e-015
rhumerus -37.5395 -36.3189 -62.0526
rradius 17.476
rwrist 8.77446
rhand -17.906 17.5197
rfingers 7.12502
rthumb 8.36102 -12.2949
lclavicle 1.42628e-014 4.77083e-015
lhumerus -36.425 8.90815 76.4856
lradius 34.2474
lwrist -3.91817
lhand -3.85638 43.2646
lfingers 7.12502
lthumb 21.8919 72.0461
rfemur -11.0156 -0.834736 24.4414
rtibia 28.8759
rfoot -20.8273 -5.08967
rtoes 4.76752
lfemur -11.9476 -5.16487 -20.752
ltibia 29.4363
lfoot -22.8004 1.21768
ltoes 0.243842
46
root 0.788573 17.4426 -33.6114 3.84885 0.77692 -2.03518
lowerback 3.78118 -3.11025 -1.40425
upperback 0.421164 -4.19205 0.601702
thorax -1.53692 -2.08335 1.60799
lowerneck -9.70549 -6.53435 -1.23657
upperneck 11.0135 -9.47945 6.32459
head 5.27856 -4.28094 1.44458
rclavicle -2.99171e-014 1.82882e-014
rhumerus -38.0222 -36.6792 -61.46
rradius 17.3699
rwrist 9.04816
rhand -17.7007 17.4502
rfingers 7.12502
rthumb 8.55921 -12.3563
lclavicle -2.99171e-014 1.82882e-014
lhumerus -36.4446 8.87728 76.5305
lradius 34.2399
lwrist -3.72057
lhand -3.79294 42.9462
lfingers 7.12502
lthumb 21.9528 71.7205
rfemur -10.9848 -0.754135 24.5742
rtibia 28.7401
rfoot -20.7698 -4.73714
rtoes 4.76774
lfemur -11.9736 -4.99265 -20.5989
ltibia 29.4429
lfoot -22.6647 1.13228
ltoes -0.290972
47
root 0.778877 17.4325 -33.616 3.83075 0.754513 -2.04399
lowerback 3.75546 -3.01257 -1.41796
upperback 0.428685 -4.06129 0.652818
thorax -1.51497 -2.01822 1.66007
lowerneck -9.39938 -6.60222 -0.983705
upperneck 10.8554 -9.55652 6.04844
head 5.15475 -4.33763 1.32759
rclavicle -1.0138e-014 -4.77083e-015
rhumerus -38.237 -37.2013 -60.9304
rradius 17.2536
rwrist 9.13632
rhand -17.2926 17.4526
rfingers 7.12502
rthumb 8.95303 -12.3374
lclavicle -1.0138e-014 -4.77083e-015
lhumerus -36.5166 8.61227 76.8382
lradius 34.7425
lwrist -3.72728
lhand -3.78407 42.9593
lfingers 7.12502
lthumb 21.9613 71.7327
rfemur -10.9794 -0.72858 24.6291
rtibia 28.6922
rfoot -20.7219 -4.99596
rtoes 3.39758
lfemur -11.9144 -5.094 -20.5639
ltibia 29.3612
lfoot -22.5391 1.31514
ltoes 0.925766
48
root 0.764493 17.4465 -33.6234 3.87515 0.80837 -2.15434
lowerback 3.73304 -2.90587 -1.47804
upperback 0.422613 -3.91898 0.801487
thorax -1.49962 -1.9468 1.83798
lowerneck -9.56233 -6.64529 -1.10917
upperneck 11.3919 -9.6431 6.10011
head 5.36078 -4.36268 1.34168
rclavicle 2.32827e-014 -3.97569e-016
rhumerus -38.3201 -37.3392 -60.5183
rradius 17.1059
rwrist 8.88715
rhand -16.703 17.8182
rfingers 7.12502
rthumb 9.52196 -11.9467
lclavicle 2.32827e-014 -3.97569e-016
lhumerus -35.9624 8.58334 77.1866
lradius 34.64
lwrist -3.69996
lhand -3.89475 42.8566
lfingers 7.12502
lthumb 21.855 71.6424
rfemur -10.9719 -0.663339 24.8262
rtibia 28.5298
rfoot -20.6576 -5.05319
rtoes 3.01074
lfemur -12.0216 -4.96837 -20.3548
ltibia 29.3602
lfoot -22.4003 0.98759
ltoes 0.627664
49
root 0.760374 17.4461 -33.6271 3.8973 0.96392 -1.98369
lowerback 3.6883 -3.01291 -1.47424
upperback 0.429924 -4.06173 0.748032
thorax -1.46532 -2.01863 1.7845
lowerneck -9.64683 -6.57913 -0.820579
upperneck 11.5305 -9.55236 5.71972
head 5.38155 -4.32608 1.18299
rclavicle -3.76448e-014 1.98785e-015
rhumerus -38.2899 -37.3431 -60.6417
rradius 17.2026
rwrist 8.8524
rhand -16.4138 17.9282
rfingers 7.12502
rthumb 9.80093 -11.8237
lclavicle -3.76448e-014 1.98785e-015
lhumerus -36.0893 8.58413 77.2207
lradius 35.0564
lwrist -3.68588
lhand -3.77065 42.8984
lfingers 7.12502
lthumb 21.9742 71.6702
rfemur -10.9677 -0.927696 24.6346
rtibia 28.4576
rfoot -20.5735 -4.80012
rtoes 2.65957
lfemur -12.0066 -4.99939 -20.5388
ltibia 29.3165
lfoot -22.621 1.19884
ltoes -0.0216901
50
root 0.746884 17.4548 -33.6237 3.92939 0.924319 -2.05613
lowerback 3.65091 -3.04939 -1.31727
upperback 0.378629 -4.10397 0.736775
thorax -1.50721 -2.03982 1.68739
lowerneck -9.61993 -6.59934 -0.686159
upperneck 11.7891 -9.60434 5.62423
head 5.44825 -4.34567 1.12532
rclavicle 6.65929e-014 -1.74931e-014
rhumerus -38.3854 -37.3735 -60.5877
rradius 17.1106
rwrist 8.87274
rhand -16.4969 17.9209
rfingers 7.12502
rthumb 9.72073 -11.8348
lclavicle 6.65929e-014 -1.74931e-014
lhumerus -35.8347 8.63056 77.2083
lradius 34.9389
lwrist -3.36193
lhand -4.02036 42.6977
lfingers 7.12502
lthumb 21.7344 71.4975
rfemur -10.9335 -0.914222 24.7737
rtibia 28.3326
rfoot -20.5131 -4.78348
rtoes 1.89401
lfemur -12.0423 -4.95264 -20.4028
ltibia 29.3084
lfoot -22.4414 1.1974
ltoes -0.169296
51
root 0.739189 17.4514 -33.6279 4.0153 1.01508 -2.01847
lowerback 3.53246 -3.03967 -1.25173
upperback 0.351017 -4.08728 0.741079
thorax -1.47424 -2.03208 1.64849
lowerneck -9.2717 -6.55059 -0.820321
upperneck 11.5375 -9.53033 5.85486
head 5.32672 -4.31437 1.23875
rclavicle 3.29486e-014 -1.55052e-014
rhumerus -38.5548 -37.5993 -60.2994
rradius 17.0503
rwrist 8.50045
rhand -16.0853 18.1369
rfingers 7.12502
rthumb 10.1178 -11.5999
lclavicle 3.29486e-014 -1.55052e-014
lhumerus -35.7313 8.52988 77.3817
lradius 35.2307
lwrist -3.18931
lhand -4.08222 42.6717
lfingers 7.12502
lthumb 21.675 71.4784
rfemur -10.9865 -0.927268 24.757
rtibia 28.2315
rfoot -20.4685 -5.03066
rtoes 2.72822
lfemur -12.1409 -5.2733 -20.4238
ltibia 29.3274
lfoot -22.5304 1.42662
ltoes -0.135096
52
root 0.719716 17.4545 -33.6356 4.06941 0.924821 -2.15663
lowerback 3.33782 -3.04481 -1.18896
upperback 0.503666 -4.08861 0.817326
thorax -1.20757 -2.03672 1.67397
lowerneck -9.59207 -6.45667 -0.887062
upperneck 11.8327 -9.42046 5.88226
head 5.47358 -4.24632 1.25103
rclavicle -2.70844e-015 1.55052e-014
rhumerus -38.2265 -37.6436 -60.5926
rradius 17.1391
rwrist 8.20843
rhand -15.8162 17.8727
rfingers 7.12502
rthumb 10.3775 -11.8513
lclavicle -2.70844e-015 1.55052e-014
lhumerus -35.6868 8.40986 77.5015
lradius 35.9339
lwrist -2.64428
lhand -4.03869 42.7845
lfingers 7.12502
lthumb 21.7168 71.5863
rfemur -11.0218 -0.602115 25.0014
rtibia 28.1296
rfoot -20.4219 -5.01389
rtoes 2.98301
lfemur -12.2927 -5.11827 -20.1668
ltibia 29.3648
lfoot -22.2654 1.10125
ltoes 0.177347
53
root 0.710959 17.4588 -33.6416 4.12449 1.01513 -2.43107
lowerback 3.39897 -3.02391 -0.890396
upperback 0.42261 -4.04864 0.935261
thorax -1.33851 -2.01625 1.63399
lowerneck -9.73771 -6.49296 -0.720224
upperneck 12.1635 -9.48723 5.66196
head 5.58493 -4.27412 1.14185
rclavicle 1.26228e-014 -3.57812e-015
rhumerus -38.4187 -37.7298 -60.3218
rradius 17.0958
rwrist 8.03659
rhand -15.4719 17.9199
rfingers 7.12502
rthumb 10.7096 -11.7871
lclavicle 1.26228e-014 -3.57812e-015
lhumerus -35.8521 8.21551 77.7021
lradius 36.3734
lwrist -2.72795
lhand -4.0263 42.4189
lfingers 7.12502
lthumb 21.7287 71.2194
rfemur -11.066 -0.537389 25.3612
rtibia 28.0101
rfoot -20.2472 -5.266
rtoes 2.83576
lfemur -12.4109 -5.29303 -19.8144
ltibia 29.4358
lfoot -22.4978 1.29173
ltoes 0.731468
54
root 0.703742 17.4572 -33.6395 4.11865 1.23482 -2.28792
lowerback 3.38074 -3.07152 -0.925682
upperback 0.359173 -4.1137 0.905894
thorax -1.39089 -2.0478 1.62749
lowerneck -9.41238 -6.47188 -0.876954
upperneck 12.1865 -9.45782 5.82351
head 5.55142 -4.26212 1.22898
rclavicle 4.77332e-014 -7.35503e-015
rhumerus -38.5499 -37.2675 -60.4368
rradius 17.2508
rwrist 7.39905
rhand -15.4152 17.7336
rfingers 7.12502
rthumb 10.7642 -11.9706
lclavicle 4.77332e-014 -7.35503e-015
lhumerus -35.8975 8.04954 77.8558
lradius 36.6749
lwrist -2.61897
lhand -3.92948 42.5726
lfingers 7.12502
lthumb 21.8217 71.3623
rfemur -10.9781 -0.699016 25.2322
rtibia 27.9113
rfoot -20.274 -5.23842
rtoes 2.68094
lfemur -12.4656 -5.46688 -19.9495
ltibia 29.5206
lfoot -22.3193 1.28848
ltoes 0.990487
55
root 0.686372 17.4566 -33.6508 4.19601 1.25995 -2.38419
lowerback 3.44325 -3.06207 -0.76563
upperback 0.299363 -4.09519 0.907059
thorax -1.49895 -2.03816 1.54526
lowerneck -9.4035 -6.54315 -0.811853
upperneck 12.2661 -9.57 5.8235
head 5.57579 -4.31181 1.20855
rclavicle -1.97045e-014 -1.19271e-015
rhumerus -38.7338 -37.2039 -60.3967
rradius 17.2975
rwrist 7.04976
rhand -15.0388 18.1666
rfingers 7.12502
rthumb 11.1273 -11.5184
lclavicle -1.97045e-014 -1.19271e-015
lhumerus -35.9572 7.82527 78.0089
lradius 37.1777
lwrist -2.53195
lhand -3.91384 43.1436
lfingers 7.12502
lthumb 21.8367 71.9315
rfemur -11.0155 -0.344824 25.4306
rtibia 27.7602
rfoot -20.2259 -5.5976
rtoes 3.67841
lfemur -12.6993 -5.52792 -19.7553
ltibia 29.6217
lfoot -22.5473 1.37868
ltoes 0.195692
56
root 0.675042 17.4603 -33.6594 4.27544 1.37511 -2.43475
lowerback 3.54359 -3.12035 -0.68237
upperback 0.142106 -4.16857 0.969117
thorax -1.71551 -2.07266 1.57798
lowerneck -9.11905 -6.39443 -0.898649
upperneck 12.3216 -9.3663 5.88676
head 5.54483 -4.21701 1.26718
rclavicle 2.59414e-014 -1.61016e-014
rhumerus -38.7634 -36.7864 -60.5503
rradius 17.3741
rwrist 6.70761
rhand -14.77 17.4994
rfingers 7.12502
rthumb 11.3866 -12.1714
lclavicle 2.59414e-014 -1.61016e-014
lhumerus -36.2786 7.6679 78.1687
lradius 37.6167
lwrist -2.37523
lhand -4.10545 42.9535
lfingers 7.12502
lthumb 21.6527 71.7628
rfemur -11.081 -0.343705 25.5529
rtibia 27.6714
rfoot -20.2554 -5.69671
rtoes 3.60569
lfemur -12.8288 -5.51065 -19.6312
ltibia 29.7133
lfoot -22.4112 1.18586
ltoes -0.808351
